<svg xmlns="http://www.w3.org/2000/svg" xmlns:xlink="http://www.w3.org/1999/xlink" fill="none" version="1.1" width="375" height="375" viewBox="0 0 375 375"><defs><filter id="master_svg1_9_2" filterUnits="objectBoundingBox" color-interpolation-filters="sRGB" x="0" y="0" width="375" height="375"><feFlood flood-opacity="0" result="BackgroundImageFix"/><feBlend mode="normal" in="SourceGraphic" in2="BackgroundImageFix" result="shape"/><feGaussianBlur in="BackgroundImage" stdDeviation="5"/><feComposite in2="SourceAlpha" operator="in" result="effect1_foregroundBlur"/><feBlend mode="normal" in="SourceGraphic" in2="effect1_foregroundBlur" result="shape"/></filter><filter id="master_svg2_9_00" filterUnits="objectBoundingBox" color-interpolation-filters="sRGB" x="-20" y="-16" width="223" height="468"><feFlood flood-opacity="0" result="BackgroundImageFix"/><feColorMatrix in="SourceAlpha" type="matrix" values="0 0 0 0 0 0 0 0 0 0 0 0 0 0 0 0 0 0 127 0"/><feOffset dy="4" dx="0"/><feGaussianBlur stdDeviation="5"/><feColorMatrix type="matrix" values="0 0 0 0 0 0 0 0 0 0 0 0 0 0 0 0 0 0 0.3019607961177826 0"/><feBlend mode="normal" in2="BackgroundImageFix" result="effect1_dropShadow"/><feBlend mode="normal" in="SourceGraphic" in2="effect1_dropShadow" result="shape"/></filter><filter id="master_svg3_9_045" filterUnits="objectBoundingBox" color-interpolation-filters="sRGB" x="-20" y="-16" width="121" height="249"><feFlood flood-opacity="0" result="BackgroundImageFix"/><feColorMatrix in="SourceAlpha" type="matrix" values="0 0 0 0 0 0 0 0 0 0 0 0 0 0 0 0 0 0 127 0"/><feOffset dy="4" dx="0"/><feGaussianBlur stdDeviation="5"/><feColorMatrix type="matrix" values="0 0 0 0 0 0 0 0 0 0 0 0 0 0 0 0 0 0 0.3019607961177826 0"/><feBlend mode="normal" in2="BackgroundImageFix" result="effect1_dropShadow"/><feBlend mode="normal" in="SourceGraphic" in2="effect1_dropShadow" result="shape"/></filter></defs><clipPath id="master_svg0_9_2"><rect x="0" y="0" width="375" height="375" rx="80"/></clipPath><g filter="url(#master_svg1_9_2)" style="mix-blend-mode:passthrough"><rect x="0" y="0" width="375" height="375" rx="80" fill="#3378B9" fill-opacity="1"/><g><g filter="url(#master_svg2_9_00)" style="mix-blend-mode:passthrough"><path d="M123.162059375,106.93799999999999Q121.193359375,106.93799999999999,121.193359375,109.18799999999999L121.193359375,183.156Q121.193359375,185.406,123.162059375,185.406L156.630859375,185.406Q207.817859375,185.406,207.817859375,144.625Q207.817859375,124.375,195.021859375,115.656Q182.224859375,106.93799999999999,156.630859375,106.93799999999999L123.162059375,106.93799999999999ZM232.849859375,283.562Q234.255859375,285.531,234.255859375,287.781Q234.255859375,290.031,233.130859375,292.281Q230.599859375,296.5,225.536859375,296.5Q218.505859375,296.5,212.458859375,292.984Q206.411859375,289.469,202.755859375,283.281L160.287059375,208.75Q159.162059375,207.062,156.912059375,207.062L123.162059375,207.062Q121.193359375,207.062,121.193359375,209.031L121.193359375,283Q121.193359375,288.625,117.255859375,292.562Q113.318359375,296.5,107.693359375,296.5Q102.068359375,296.5,98.130859375,292.562Q94.193359375,288.625,94.193359375,283L94.193359375,101.875Q94.193359375,95.125,99.115259375,90.203Q104.037059375,85.281,110.787059375,85.281L160.568359375,85.281Q234.255859375,85.281,234.255859375,144.625Q234.255859375,167.969,222.161859375,182.875Q210.067859375,197.781,188.411859375,203.406Q186.443859375,203.969,187.567859375,205.938L232.849859375,283.562Z" fill="#323233" fill-opacity="1"/></g><g filter="url(#master_svg3_9_045)" style="mix-blend-mode:passthrough"><path d="M279.740259375,323.3720703125C289.396459375,323.3720703125,298.177759375,318.3410703125,305.662059375,312.1530703125L306.099659375,312.1530703125L307.255859375,321.3720703125L318.052759375,321.3720703125L318.052759375,273.4340703125C318.052759375,254.0439703125,310.130859375,241.3720703125,290.974659375,241.3720703125C278.302759375,241.3720703125,267.365259375,246.9970703125,260.302759375,251.6064703125L265.349659375,260.6530703125C271.537059375,256.4810703125,279.740259375,252.3251703125,288.818359375,252.3251703125C301.630859375,252.3251703125,304.943359375,261.9340703125,304.943359375,271.9970703125C271.677759375,275.7310703125,256.990239375,284.2000703125,256.990239375,301.13807031249996C256.990239375,315.3100703125,266.646459375,323.3720703125,279.740259375,323.3720703125ZM283.490259375,312.73107031250004C275.708959375,312.73107031250004,269.662059375,309.2780703125,269.662059375,300.35607031250004C269.662059375,290.2940703125,278.599659375,283.8250703125,304.943359375,280.7940703125L304.943359375,302.51307031249996C297.318359375,309.2780703125,290.974659375,312.73107031250004,283.490259375,312.73107031250004Z" fill="#323233" fill-opacity="1"/></g></g></g></svg>