<svg t="1654415289509" class="icon" viewBox="0 0 1024 1024" version="1.1" xmlns="http://www.w3.org/2000/svg" p-id="4318" width="200" height="200"><path d="M957 453.1c-4.4-20.9-19.6-37.8-39.9-44.5l-14.9-5.1c-35-10.9-65-33.7-84.9-64.5-19.4-31-24.9-68.7-14.9-103.9l5-14.9c5.3-21.1-0.3-43.4-14.9-59.4-14.6-16.1-14.9-9.8-54.9-34.6-18.8-8.9-37.1-18.7-54.9-29.6-21.2-5.3-43.7 0.3-59.9 14.9l-10 14.6c-26.7 26-62.6 40.3-99.8 39.7-36.8-1.6-72-15.6-99.8-39.7l-10-14.6C387.3 96 363.4 92 343.3 101.4c-19.2 8.2-37.6 18.2-54.9 29.9-17.6 10-34.3 21.6-49.9 34.6-18.4 11.3-26.7 33.8-20 54.3l5 14.9c10.3 35.2 4.8 73-14.9 103.9-18.3 32.2-49 55.5-84.9 64.5l-14.9 5.1c-21.3 5-37.3 22.8-39.9 44.5-3.9 19.6-5.5 39.5-5 59.4-1 19.9 0.6 39.9 5 59.4 4.6 20.8 19.8 37.7 39.9 44.5l14.9 5.1c34.9 10.9 64.9 33.6 84.9 64.2 19.4 31 24.9 68.7 14.9 103.9l-5 14.9c-5.3 21.1 0.3 43.4 14.9 59.4 14.6 16.1 14.9 9.8 54.9 34.6 18.8 9 37.1 19 54.9 29.9 21.2 5.2 43.6-0.4 59.9-14.9l10-9.9c56-52.9 143.6-52.9 199.7 0l10 9.9c16.3 14.5 38.7 20.1 59.9 14.9 19.2-8.2 37.6-18.2 54.9-29.9 19.1-7.6 36.1-19.4 49.9-34.6 16.8-14.8 22.7-38.4 14.9-59.4l-5-14.9c-10.3-35.2-4.8-73 14.9-103.9 18.4-32 49-55.2 84.8-64.2l14.9-5.1c21.2-5.2 37.1-22.8 39.9-44.5 3.8-19.6 5.5-39.5 5-59.4 3.7-19.6 3.7-39.8 0.1-59.4zM512.8 690.7c-98.2-0.8-177.3-81-176.8-179.2 0.5-98.2 80.5-177.5 178.7-177.2 98.2 0.3 177.7 80 177.7 178.2 0 47.5-19 93-52.8 126.5-33.6 33.5-79.3 52.1-126.8 51.7z m0 0" p-id="4319"></path></svg>