<svg t="1658649474867" class="icon" viewBox="0 0 1024 1024" version="1.1" xmlns="http://www.w3.org/2000/svg" p-id="9954" width="200" height="200"><path d="M512 0a512 512 0 1 0 512 512A512 512 0 0 0 512 0z m0 921.6h-9.728a176.64 176.64 0 0 1-6.656-68.096 302.08 302.08 0 0 1 77.312-146.944c42.496-30.72 115.712-4.096 138.752-38.4s-4.096-84.992-57.856-123.392-80.896-15.36-150.528-30.72-58.368-62.464-112.128-81.92-57.856 38.4-131.072 54.272a262.144 262.144 0 0 1-153.6-31.744A409.6 409.6 0 0 1 512 102.4h31.232c-5.632 30.72-17.92 116.224 13.824 135.168s65.536 27.136 65.536 42.496-23.04 84.992-4.096 108.032a177.664 177.664 0 0 0 131.072 54.272c38.4-11.776 54.272-73.216 54.272-73.216s51.2 61.952 77.824-32.768A409.6 409.6 0 0 1 512 921.6z" p-id="9955"></path></svg>