<svg t="1653891605835" class="icon" viewBox="0 0 1024 1024" version="1.1" xmlns="http://www.w3.org/2000/svg" p-id="16920" width="200" height="200"><path d="M340.42 110.98H117.56c-29.79 0-53.56 24.06-53.56 53.57V387.4c0 29.79 24.06 53.57 53.56 53.57h222.85c29.79 0 53.56-24.06 53.56-53.57V164.55c0.01-29.51-24.05-53.57-53.55-53.57zM340.42 582.75H117.56c-29.79 0-53.56 24.06-53.56 53.57v222.85c0 29.79 24.06 53.57 53.56 53.57h222.85c29.79 0 53.56-24.06 53.56-53.57V636.32c0.01-29.51-24.05-53.57-53.55-53.57zM930.49 110.98H518.01c-16.33 0-29.5 13.18-29.5 29.5v35.23c0 16.33 13.18 29.5 29.5 29.5h412.48c16.33 0 29.5-13.18 29.5-29.5v-35.23c0.29-16.33-13.17-29.5-29.5-29.5zM930.49 347.01H518.01c-16.33 0-29.5 13.18-29.5 29.5v35.23c0 16.33 13.18 29.5 29.5 29.5h412.48c16.33 0 29.5-13.18 29.5-29.5v-35.23c0.29-16.33-13.17-29.5-29.5-29.5zM930.49 582.75H518.01c-16.33 0-29.5 13.18-29.5 29.5v35.23c0 16.33 13.18 29.5 29.5 29.5h412.48c16.33 0 29.5-13.18 29.5-29.5v-35.23c0.29-16.32-13.17-29.5-29.5-29.5zM930.49 818.78H518.01c-16.33 0-29.5 13.18-29.5 29.5v35.23c0 16.33 13.18 29.5 29.5 29.5h412.48c16.33 0 29.5-13.18 29.5-29.5v-35.23c0.29-16.33-13.17-29.5-29.5-29.5z" p-id="16921"></path></svg>