<svg xmlns="http://www.w3.org/2000/svg" xmlns:xlink="http://www.w3.org/1999/xlink" fill="none" version="1.1" width="375" height="375" viewBox="0 0 375 375"><defs><filter id="master_svg1_9_00" filterUnits="userSpaceOnUse" color-interpolation-filters="sRGB" x="55.505859375" y="-32.5" width="203" height="448"><feFlood flood-opacity="0" result="BackgroundImageFix"/><feColorMatrix in="SourceAlpha" type="matrix" values="0 0 0 0 0 0 0 0 0 0 0 0 0 0 0 0 0 0 127 0"/><feOffset dy="4" dx="0"/><feGaussianBlur stdDeviation="5"/><feColorMatrix type="matrix" values="0 0 0 0 0 0 0 0 0 0 0 0 0 0 0 0 0 0 0.3019607961177826 0"/><feBlend mode="normal" in2="BackgroundImageFix" result="effect1_dropShadow"/><feBlend mode="normal" in="SourceGraphic" in2="effect1_dropShadow" result="shape"/></filter><filter id="master_svg2_9_045" filterUnits="userSpaceOnUse" color-interpolation-filters="sRGB" x="238.505859375" y="148.3720703125" width="101" height="229"><feFlood flood-opacity="0" result="BackgroundImageFix"/><feColorMatrix in="SourceAlpha" type="matrix" values="0 0 0 0 0 0 0 0 0 0 0 0 0 0 0 0 0 0 127 0"/><feOffset dy="4" dx="0"/><feGaussianBlur stdDeviation="5"/><feColorMatrix type="matrix" values="0 0 0 0 0 0 0 0 0 0 0 0 0 0 0 0 0 0 0.3019607961177826 0"/><feBlend mode="normal" in2="BackgroundImageFix" result="effect1_dropShadow"/><feBlend mode="normal" in="SourceGraphic" in2="effect1_dropShadow" result="shape"/></filter></defs><clipPath id="master_svg0_9_2"><rect x="0" y="0" width="375" height="375" rx="4"/></clipPath><g clip-path="url(#master_svg0_9_2)" style="mix-blend-mode:passthrough"><rect x="0" y="0" width="375" height="375" rx="4" fill="#61DAFB" fill-opacity="1"/><g><g filter="url(#master_svg1_9_00)" style="mix-blend-mode:passthrough"><path d="M123.162059375,106.64099999999999Q121.193359375,106.64099999999999,121.193359375,108.89099999999999L121.193359375,182.859Q121.193359375,185.109,123.162059375,185.109L156.630859375,185.109Q207.817859375,185.109,207.817859375,144.328Q207.817859375,124.078,195.021859375,115.35900000000001Q182.224859375,106.64099999999999,156.630859375,106.64099999999999L123.162059375,106.64099999999999ZM232.849859375,283.266Q234.255859375,285.234,234.255859375,287.484Q234.255859375,289.734,233.130859375,291.984Q230.599859375,296.203,225.536859375,296.203Q218.505859375,296.203,212.458859375,292.688Q206.411859375,289.172,202.755859375,282.984L160.287059375,208.453Q159.162059375,206.766,156.912059375,206.766L123.162059375,206.766Q121.193359375,206.766,121.193359375,208.734L121.193359375,282.703Q121.193359375,288.328,117.255859375,292.266Q113.318359375,296.203,107.693359375,296.203Q102.068359375,296.203,98.130859375,292.266Q94.193359375,288.328,94.193359375,282.703L94.193359375,101.578Q94.193359375,94.828,99.115259375,89.906Q104.037059375,84.984,110.787059375,84.984L160.568359375,84.984Q234.255859375,84.984,234.255859375,144.328Q234.255859375,167.672,222.161859375,182.578Q210.067859375,197.484,188.411859375,203.109Q186.443859375,203.672,187.567859375,205.641L232.849859375,283.266Z" fill="#282C34" fill-opacity="1"/></g><g filter="url(#master_svg2_9_045)" style="mix-blend-mode:passthrough"><path d="M279.740259375,323.6560703125C289.396459375,323.6560703125,298.177759375,318.6250703125,305.662059375,312.4370703125L306.099659375,312.4370703125L307.255859375,321.6560703125L318.052759375,321.6560703125L318.052759375,273.7180703125C318.052759375,254.32797031249999,310.130859375,241.6560703125,290.974659375,241.6560703125C278.302759375,241.6560703125,267.365259375,247.2810703125,260.302759375,251.89047031249999L265.349659375,260.9370703125C271.537059375,256.76507031250003,279.740259375,252.6091703125,288.818359375,252.6091703125C301.630859375,252.6091703125,304.943359375,262.2180703125,304.943359375,272.2810703125C271.677759375,276.01507031250003,256.990239375,284.48407031249997,256.990239375,301.4220703125C256.990239375,315.5930703125,266.646459375,323.6560703125,279.740259375,323.6560703125ZM283.490259375,313.01507031250003C275.708959375,313.01507031250003,269.662059375,309.5620703125,269.662059375,300.64007031250003C269.662059375,290.5780703125,278.599659375,284.10907031249997,304.943359375,281.0780703125L304.943359375,302.7970703125C297.318359375,309.5620703125,290.974659375,313.01507031250003,283.490259375,313.01507031250003Z" fill="#3D3D3D" fill-opacity="1"/></g></g></g></svg>